<svg width="42" height="42" viewBox="0 0 42 42" fill="none" xmlns="http://www.w3.org/2000/svg">
    <circle cx="21" cy="21" r="21" fill="#FFE4E9"/>
    <path fill-rule="evenodd" clip-rule="evenodd" d="M17.7812 13.8645C18.4427 12.7113 19.6705 12 21 12C22.3294 12 23.5573 12.7113 24.2187 13.8645L30.5697 24.9375C30.8517 25.4291 31 25.9859 31 26.5526C31 28.3452 29.5467 29.7985 27.754 29.7985H14.2461C12.4533 29.7985 11 28.3452 11 26.5526C11 25.9859 11.1484 25.4291 11.4303 24.9375L17.7812 13.8645ZM21 13.6667C20.2677 13.6667 19.5913 14.0584 19.227 14.6937L12.876 25.7667C12.7389 26.0059 12.6667 26.2768 12.6667 26.5526C12.6667 27.4249 13.3738 28.1319 14.2461 28.1319H27.754C28.6262 28.1319 29.3333 27.4249 29.3333 26.5526C29.3333 26.2768 29.2612 26.0059 29.124 25.7667L22.773 14.6937C22.4087 14.0584 21.7323 13.6667 21 13.6667Z" fill="#AC2B4E"/>
    <path fill-rule="evenodd" clip-rule="evenodd" d="M21 16.9753C21.4602 16.9753 21.8333 17.3484 21.8333 17.8087V22.178C21.8333 22.6383 21.4602 23.0114 21 23.0114C20.5397 23.0114 20.1666 22.6383 20.1666 22.178V17.8087C20.1666 17.3484 20.5397 16.9753 21 16.9753ZM21 24.6518C21.4602 24.6518 21.8333 25.0249 21.8333 25.4852V25.8811C21.8333 26.3413 21.4602 26.7144 21 26.7144C20.5397 26.7144 20.1666 26.3413 20.1666 25.8811V25.4852C20.1666 25.0249 20.5397 24.6518 21 24.6518Z" fill="#AC2B4E"/>
</svg>
