<svg width="38" height="39" viewBox="0 0 38 39" fill="none" xmlns="http://www.w3.org/2000/svg">
<rect y="0.5" width="38" height="38" rx="19" fill="white"/>
<path d="M11.8404 13.5H26.0622C27.0773 13.5 27.9029 14.3652 27.9029 15.4287V22.5047L30 27.5L24.6101 25.9625H11.8404C10.8256 25.9625 10 25.0971 10 24.0335V15.4285C10 14.3652 10.8258 13.5 11.8404 13.5ZM23.6054 21.2829C24.406 21.2829 25.0575 20.6002 25.0575 19.7611C25.0575 18.922 24.406 18.2393 23.6054 18.2393C22.8047 18.2393 22.1533 18.922 22.1533 19.7611C22.1533 20.6002 22.8047 21.2829 23.6054 21.2829ZM18.8254 21.2829C19.6263 21.2829 20.2778 20.6002 20.2778 19.7611C20.2778 18.922 19.6263 18.2393 18.8254 18.2393C18.0248 18.2393 17.3733 18.922 17.3733 19.7611C17.3733 20.6002 18.0248 21.2829 18.8254 21.2829ZM14.0457 21.2829C14.8464 21.2829 15.4978 20.6002 15.4978 19.7611C15.4978 18.922 14.8464 18.2393 14.0457 18.2393C13.2448 18.2393 12.5931 18.922 12.5931 19.7611C12.5934 20.6002 13.2451 21.2829 14.0457 21.2829Z" fill="#02ADC8"/>
</svg>
