<svg width="25" height="23" viewBox="0 0 25 23" fill="none" xmlns="http://www.w3.org/2000/svg">
    <path d="M0.406665 13.3976L1.88 14.8672L3.35333 16.3369C3.62472 16.6073 3.98 16.7425 4.33528 16.7425C4.69056 16.7425 5.04611 16.6073 5.31722 16.3369C5.32833 16.3258 5.33556 16.3125 5.34611 16.3014L6.78722 14.8639L8.26056 13.3943C8.53195 13.1236 8.6675 12.7692 8.6675 12.4148C8.6675 12.0604 8.53195 11.7055 8.26056 11.435C7.98917 11.1646 7.63361 11.0294 7.27833 11.0294C6.92306 11.0294 6.5675 11.1646 6.29667 11.4353L5.72305 12.0075L5.72305 11.5001C5.72305 10.3658 5.95417 9.28432 6.37222 8.30012C6.79028 7.31565 7.39528 6.42899 8.14194 5.68419C8.88861 4.93912 9.77806 4.33592 10.7644 3.91891C11.7508 3.5019 12.8353 3.27109 13.9728 3.27109C15.11 3.27109 16.1942 3.5019 17.1808 3.91891C18.1678 4.33592 19.0567 4.93912 19.8036 5.6842C20.5506 6.42899 21.1553 7.31593 21.5733 8.30012C21.9908 9.28432 22.2222 10.3658 22.2222 11.5001C22.2222 12.6348 21.9908 13.716 21.5728 14.7004C21.1547 15.6846 20.55 16.5713 19.8031 17.3164C19.0561 18.0612 18.1672 18.6646 17.1803 19.0816C16.1936 19.4987 15.1094 19.7292 13.9722 19.7292C12.8347 19.7292 11.7506 19.4987 10.7639 19.0816C9.77722 18.6646 8.88805 18.0612 8.14139 17.3164L6.17833 19.2745C7.17666 20.2706 8.36528 21.0769 9.68389 21.6344C11.0028 22.1919 12.4522 22.5 13.9722 22.5C15.4922 22.5 16.9414 22.1919 18.2606 21.6344C19.5797 21.0769 20.7678 20.2706 21.7664 19.2745C22.7647 18.2787 23.5731 17.093 24.1319 15.7777C24.6908 14.4621 25 13.0166 25 11.5001C25 9.98367 24.6908 8.53841 24.1319 7.22255C23.5731 5.90697 22.7647 4.72162 21.7664 3.72551C20.7678 2.72968 19.5794 1.92337 18.2606 1.36588C16.9417 0.808393 15.4925 0.500001 13.9722 0.500001C12.4519 0.500001 11.0028 0.808392 9.68389 1.36588C8.36528 1.92337 7.17667 2.72968 6.17833 3.72551C5.17972 4.72162 4.37139 5.90697 3.8125 7.22255C3.25361 8.53813 2.945 9.98367 2.945 11.5001L2.945 12.0108L2.37139 11.4386C2.1 11.1679 1.74444 11.0327 1.38917 11.0327C1.03389 11.0327 0.678054 11.1679 0.406943 11.4386C0.135276 11.7088 -9.94956e-07 12.0634 -1.02594e-06 12.4178C-1.05692e-06 12.7722 0.135554 13.1269 0.406665 13.3976Z" fill="black"/>
</svg>
