<svg width="11" height="22" viewBox="0 0 11 22" fill="none" xmlns="http://www.w3.org/2000/svg">
    <path fill-rule="evenodd" clip-rule="evenodd" d="M5.86521 2.81445L10.0332 6.98241C10.1334 7.08267 10.1836 7.20442 10.1836 7.34765C10.1836 7.49087 10.1334 7.61262 10.0332 7.71288L9.56052 8.18553C9.46026 8.28579 9.33851 8.3395 9.19528 8.34667C9.05206 8.35383 8.93031 8.30728 8.83005 8.20702L5.49998 4.87695L2.16991 8.20702C2.06965 8.30728 1.94791 8.35383 1.80468 8.34667C1.66145 8.3395 1.5397 8.28579 1.43944 8.18553L0.966788 7.71288C0.866529 7.61262 0.816398 7.49087 0.816398 7.34765C0.816398 7.20442 0.866529 7.08267 0.966788 6.98241L5.13475 2.81445C5.23501 2.69987 5.35675 2.64258 5.49998 2.64258C5.64321 2.64258 5.76495 2.69987 5.86521 2.81445Z" fill="#858585"/>
    <mask id="mask0_630_459" style="mask-type:luminance" maskUnits="userSpaceOnUse" x="0" y="2" width="11" height="7">
        <path fill-rule="evenodd" clip-rule="evenodd" d="M5.86521 2.81445L10.0332 6.98241C10.1334 7.08267 10.1836 7.20442 10.1836 7.34765C10.1836 7.49087 10.1334 7.61262 10.0332 7.71288L9.56052 8.18553C9.46026 8.28579 9.33851 8.3395 9.19528 8.34667C9.05206 8.35383 8.93031 8.30728 8.83005 8.20702L5.49998 4.87695L2.16991 8.20702C2.06965 8.30728 1.94791 8.35383 1.80468 8.34667C1.66145 8.3395 1.5397 8.28579 1.43944 8.18553L0.966788 7.71288C0.866529 7.61262 0.816398 7.49087 0.816398 7.34765C0.816398 7.20442 0.866529 7.08267 0.966788 6.98241L5.13475 2.81445C5.23501 2.69987 5.35675 2.64258 5.49998 2.64258C5.64321 2.64258 5.76495 2.69987 5.86521 2.81445Z" fill="white"/>
    </mask>
    <g mask="url(#mask0_630_459)">
    </g>
    <path fill-rule="evenodd" clip-rule="evenodd" d="M5.13479 19.1855L0.966827 15.0176C0.866567 14.9173 0.816437 14.7956 0.816437 14.6524C0.816437 14.5091 0.866567 14.3874 0.966827 14.2871L1.43948 13.8145C1.53974 13.7142 1.66149 13.6605 1.80472 13.6533C1.94794 13.6462 2.06969 13.6927 2.16995 13.793L5.50002 17.1231L8.83009 13.793C8.93035 13.6927 9.05209 13.6462 9.19532 13.6533C9.33855 13.6605 9.4603 13.7142 9.56056 13.8145L10.0332 14.2871C10.1335 14.3874 10.1836 14.5091 10.1836 14.6524C10.1836 14.7956 10.1335 14.9173 10.0332 15.0176L5.86525 19.1855C5.76499 19.3001 5.64325 19.3574 5.50002 19.3574C5.35679 19.3574 5.23505 19.3001 5.13479 19.1855Z" fill="#858585"/>
    <mask id="mask1_630_459" style="mask-type:luminance" maskUnits="userSpaceOnUse" x="0" y="13" width="11" height="7">
        <path fill-rule="evenodd" clip-rule="evenodd" d="M5.13479 19.1855L0.966827 15.0176C0.866567 14.9173 0.816437 14.7956 0.816437 14.6524C0.816437 14.5091 0.866567 14.3874 0.966827 14.2871L1.43948 13.8145C1.53974 13.7142 1.66149 13.6605 1.80472 13.6533C1.94794 13.6462 2.06969 13.6927 2.16995 13.793L5.50002 17.1231L8.83009 13.793C8.93035 13.6927 9.05209 13.6462 9.19532 13.6533C9.33855 13.6605 9.4603 13.7142 9.56056 13.8145L10.0332 14.2871C10.1335 14.3874 10.1836 14.5091 10.1836 14.6524C10.1836 14.7956 10.1335 14.9173 10.0332 15.0176L5.86525 19.1855C5.76499 19.3001 5.64325 19.3574 5.50002 19.3574C5.35679 19.3574 5.23505 19.3001 5.13479 19.1855Z" fill="white"/>
    </mask>
    <g mask="url(#mask1_630_459)">
    </g>
</svg>
